<svg xmlns="http://www.w3.org/2000/svg" viewBox="0 0 64 64">
  <defs>
    <linearGradient id="beanGradient" x1="0%" y1="0%" x2="0%" y2="100%">
      <stop offset="0%" stop-color="#51311a" />
      <stop offset="100%" stop-color="#2f1b0e" />
    </linearGradient>
  </defs>
  <rect width="64" height="64" rx="16" fill="#1a120b" />
  <path d="M36.8 10.2c-6.6 0-12.6 3.7-16.6 9.7-4.2 6.4-5.4 14.8-3.5 21.5 2.1 7.4 7.7 12.4 14.4 12.4 6.5 0 12.5-3.8 16.5-9.8 4.2-6.5 5.3-14.9 3.4-21.6-2.1-7.4-7.6-12.2-14.2-12.2ZM31 17.8c1.7-2.1 3.8-3.5 6.1-4 0.9-0.2 1.9 0.4 2.1 1.3 0.2 0.9-0.4 1.8-1.3 2-1.6 0.4-3 1.3-4.2 2.9-4.5 5.6-4.9 15.2-1 21 0.5 0.7 0.4 1.7-0.3 2.2-0.8 0.6-1.9 0.4-2.4-0.4-4.8-7-4.3-18.7 1-25Z" fill="url(#beanGradient)" />
</svg>
